<svg width="40" height="41" viewBox="0 0 40 41" fill="none" xmlns="http://www.w3.org/2000/svg">
<path d="M0.499997 20.2999C0.499998 9.53037 9.23045 0.799928 20 0.79993C30.7696 0.799932 39.5 9.53038 39.5 20.2999C39.5 31.0695 30.7695 39.7999 20 39.7999C9.23044 39.7999 0.499995 31.0695 0.499997 20.2999Z" fill="#E1FF33"/>
<path d="M0.499997 20.2999C0.499998 9.53037 9.23045 0.799928 20 0.79993C30.7696 0.799932 39.5 9.53038 39.5 20.2999C39.5 31.0695 30.7695 39.7999 20 39.7999C9.23044 39.7999 0.499995 31.0695 0.499997 20.2999Z" stroke="black"/>
<path d="M25.2959 21.0959L17.7959 28.5959C17.5846 28.8072 17.2979 28.926 16.999 28.926C16.7001 28.926 16.4135 28.8072 16.2021 28.5959C15.9908 28.3845 15.8721 28.0979 15.8721 27.799C15.8721 27.5001 15.9908 27.2135 16.2021 27.0021L22.9062 20.2999L16.204 13.5959C16.0994 13.4912 16.0164 13.367 15.9597 13.2303C15.9031 13.0935 15.8739 12.947 15.8739 12.799C15.8739 12.651 15.9031 12.5045 15.9597 12.3677C16.0164 12.231 16.0994 12.1068 16.204 12.0021C16.3087 11.8975 16.4329 11.8145 16.5696 11.7578C16.7064 11.7012 16.8529 11.6721 17.0009 11.6721C17.1489 11.6721 17.2954 11.7012 17.4322 11.7578C17.5689 11.8145 17.6931 11.8975 17.7978 12.0021L25.2978 19.5021C25.4025 19.6068 25.4856 19.7311 25.5422 19.8679C25.5988 20.0047 25.6279 20.1513 25.6277 20.2994C25.6275 20.4475 25.5981 20.594 25.5412 20.7307C25.4843 20.8674 25.4009 20.9915 25.2959 21.0959Z" fill="black"/>
</svg>
