<svg width="40" height="41" viewBox="0 0 40 41" fill="none" xmlns="http://www.w3.org/2000/svg">
<path d="M0.499997 20.1782C0.499998 9.40867 9.23045 0.678224 20 0.678226C30.7696 0.678228 39.5 9.40868 39.5 20.1782C39.5 30.9478 30.7695 39.6782 20 39.6782C9.23044 39.6782 0.499995 30.9478 0.499997 20.1782Z" fill="#E1FF33"/>
<path d="M0.499997 20.1782C0.499998 9.40867 9.23045 0.678224 20 0.678226C30.7696 0.678228 39.5 9.40868 39.5 20.1782C39.5 30.9478 30.7695 39.6782 20 39.6782C9.23044 39.6782 0.499995 30.9478 0.499997 20.1782Z" stroke="black"/>
<path d="M25.2959 20.9741L17.7959 28.4741C17.5846 28.6855 17.2979 28.8042 16.999 28.8042C16.7001 28.8042 16.4135 28.6855 16.2021 28.4741C15.9908 28.2628 15.8721 27.9761 15.8721 27.6772C15.8721 27.3784 15.9908 27.0917 16.2021 26.8804L22.9062 20.1782L16.204 13.4741C16.0994 13.3695 16.0164 13.2452 15.9597 13.1085C15.9031 12.9718 15.8739 12.8252 15.8739 12.6772C15.8739 12.5293 15.9031 12.3827 15.9597 12.246C16.0164 12.1093 16.0994 11.985 16.204 11.8804C16.3087 11.7757 16.4329 11.6927 16.5696 11.6361C16.7064 11.5794 16.8529 11.5503 17.0009 11.5503C17.1489 11.5503 17.2954 11.5794 17.4322 11.6361C17.5689 11.6927 17.6931 11.7757 17.7978 11.8804L25.2978 19.3804C25.4025 19.485 25.4856 19.6093 25.5422 19.7461C25.5988 19.8829 25.6279 20.0296 25.6277 20.1776C25.6275 20.3257 25.5981 20.4723 25.5412 20.609C25.4843 20.7456 25.4009 20.8697 25.2959 20.9741Z" fill="black"/>
</svg>
