<svg width="40" height="41" viewBox="0 0 40 41" fill="none" xmlns="http://www.w3.org/2000/svg">
<path d="M0.499997 20.5229C0.499998 9.7534 9.23045 1.02295 20 1.02295C30.7696 1.02295 39.5 9.7534 39.5 20.523C39.5 31.2925 30.7695 40.023 20 40.023C9.23044 40.023 0.499995 31.2925 0.499997 20.5229Z" fill="#E1FF33"/>
<path d="M0.499997 20.5229C0.499998 9.7534 9.23045 1.02295 20 1.02295C30.7696 1.02295 39.5 9.7534 39.5 20.523C39.5 31.2925 30.7695 40.023 20 40.023C9.23044 40.023 0.499995 31.2925 0.499997 20.5229Z" stroke="black"/>
<path d="M25.2959 21.3188L17.7959 28.8188C17.5846 29.0302 17.2979 29.1489 16.999 29.1489C16.7001 29.1489 16.4135 29.0302 16.2021 28.8188C15.9908 28.6075 15.8721 28.3209 15.8721 28.022C15.8721 27.7231 15.9908 27.4364 16.2021 27.2251L22.9062 20.5229L16.204 13.8188C16.0994 13.7142 16.0164 13.59 15.9597 13.4532C15.9031 13.3165 15.8739 13.17 15.8739 13.022C15.8739 12.874 15.9031 12.7274 15.9597 12.5907C16.0164 12.454 16.0994 12.3297 16.204 12.2251C16.3087 12.1204 16.4329 12.0374 16.5696 11.9808C16.7064 11.9242 16.8529 11.895 17.0009 11.895C17.1489 11.895 17.2954 11.9242 17.4322 11.9808C17.5689 12.0374 17.6931 12.1204 17.7978 12.2251L25.2978 19.7251C25.4025 19.8297 25.4856 19.954 25.5422 20.0908C25.5988 20.2277 25.6279 20.3743 25.6277 20.5224C25.6275 20.6704 25.5981 20.817 25.5412 20.9537C25.4843 21.0904 25.4009 21.2145 25.2959 21.3188Z" fill="black"/>
</svg>
