<svg width="40" height="40" viewBox="0 0 40 40" fill="none" xmlns="http://www.w3.org/2000/svg">
<path d="M0.499997 20C0.499998 9.23045 9.23045 0.500002 20 0.500003C30.7696 0.500005 39.5 9.23045 39.5 20C39.5 30.7696 30.7695 39.5 20 39.5C9.23044 39.5 0.499995 30.7696 0.499997 20Z" fill="#E1FF33"/>
<path d="M0.499997 20C0.499998 9.23045 9.23045 0.500002 20 0.500003C30.7696 0.500005 39.5 9.23045 39.5 20C39.5 30.7696 30.7695 39.5 20 39.5C9.23044 39.5 0.499995 30.7696 0.499997 20Z" stroke="black"/>
<path d="M25.2959 20.796L17.7959 28.296C17.5846 28.5073 17.2979 28.626 16.999 28.626C16.7001 28.626 16.4135 28.5073 16.2021 28.296C15.9908 28.0846 15.8721 27.798 15.8721 27.4991C15.8721 27.2002 15.9908 26.9136 16.2021 26.7022L22.9062 20L16.204 13.296C16.0994 13.1913 16.0164 13.0671 15.9597 12.9303C15.9031 12.7936 15.8739 12.6471 15.8739 12.4991C15.8739 12.3511 15.9031 12.2045 15.9597 12.0678C16.0164 11.9311 16.0994 11.8069 16.204 11.7022C16.3087 11.5976 16.4329 11.5146 16.5696 11.4579C16.7064 11.4013 16.8529 11.3721 17.0009 11.3721C17.1489 11.3721 17.2954 11.4013 17.4322 11.4579C17.5689 11.5146 17.6931 11.5976 17.7978 11.7022L25.2978 19.2022C25.4025 19.3068 25.4856 19.4311 25.5422 19.568C25.5988 19.7048 25.6279 19.8514 25.6277 19.9995C25.6275 20.1475 25.5981 20.2941 25.5412 20.4308C25.4843 20.5675 25.4009 20.6916 25.2959 20.796Z" fill="black"/>
</svg>
