<svg width="40" height="41" viewBox="0 0 40 41" fill="none" xmlns="http://www.w3.org/2000/svg">
<path d="M0.499997 20.5117C0.499998 9.74217 9.23045 1.01172 20 1.01172C30.7696 1.01172 39.5 9.74217 39.5 20.5117C39.5 31.2813 30.7695 40.0117 20 40.0117C9.23044 40.0117 0.499995 31.2813 0.499997 20.5117Z" fill="#E1FF33"/>
<path d="M0.499997 20.5117C0.499998 9.74217 9.23045 1.01172 20 1.01172C30.7696 1.01172 39.5 9.74217 39.5 20.5117C39.5 31.2813 30.7695 40.0117 20 40.0117C9.23044 40.0117 0.499995 31.2813 0.499997 20.5117Z" stroke="black"/>
<path d="M25.2959 21.3076L17.7959 28.8076C17.5846 29.019 17.2979 29.1377 16.999 29.1377C16.7001 29.1377 16.4135 29.019 16.2021 28.8076C15.9908 28.5963 15.8721 28.3096 15.8721 28.0107C15.8721 27.7119 15.9908 27.4252 16.2021 27.2139L22.9062 20.5117L16.204 13.8076C16.0994 13.703 16.0164 13.5787 15.9597 13.442C15.9031 13.3053 15.8739 13.1587 15.8739 13.0107C15.8739 12.8627 15.9031 12.7162 15.9597 12.5795C16.0164 12.4427 16.0994 12.3185 16.204 12.2139C16.3087 12.1092 16.4329 12.0262 16.5696 11.9696C16.7064 11.9129 16.8529 11.8838 17.0009 11.8838C17.1489 11.8838 17.2954 11.9129 17.4322 11.9696C17.5689 12.0262 17.6931 12.1092 17.7978 12.2139L25.2978 19.7139C25.4025 19.8185 25.4856 19.9428 25.5422 20.0796C25.5988 20.2164 25.6279 20.3631 25.6277 20.5111C25.6275 20.6592 25.5981 20.8058 25.5412 20.9424C25.4843 21.0791 25.4009 21.2032 25.2959 21.3076Z" fill="black"/>
</svg>
