<svg width="28" height="28" viewBox="0 0 28 28" fill="none" xmlns="http://www.w3.org/2000/svg">
<path d="M14 0.5C21.4558 0.5 27.5 6.54416 27.5 14C27.5 21.4558 21.4558 27.5 14 27.5C6.54416 27.5 0.5 21.4558 0.5 14C0.5 6.54416 6.54416 0.5 14 0.5Z" fill="#E1FF33"/>
<path d="M14 0.5C21.4558 0.5 27.5 6.54416 27.5 14C27.5 21.4558 21.4558 27.5 14 27.5C6.54416 27.5 0.5 21.4558 0.5 14C0.5 6.54416 6.54416 0.5 14 0.5Z" stroke="black"/>
<path d="M13.2041 19.296L5.7041 11.796C5.49276 11.5846 5.37403 11.298 5.37403 10.9991C5.37403 10.7002 5.49276 10.4136 5.7041 10.2022C5.91545 9.99087 6.20209 9.87213 6.50098 9.87213C6.79986 9.87213 7.08651 9.99087 7.29785 10.2022L14 16.9063L20.7041 10.2041C20.8088 10.0994 20.933 10.0164 21.0697 9.95979C21.2064 9.90316 21.353 9.87401 21.501 9.87401C21.649 9.87401 21.7955 9.90316 21.9322 9.95979C22.069 10.0164 22.1932 10.0994 22.2979 10.2041C22.4025 10.3087 22.4855 10.433 22.5421 10.5697C22.5988 10.7064 22.6279 10.853 22.6279 11.001C22.6279 11.149 22.5988 11.2955 22.5421 11.4322C22.4855 11.569 22.4025 11.6932 22.2979 11.7978L14.7979 19.2978C14.6932 19.4026 14.5689 19.4857 14.4321 19.5423C14.2953 19.5989 14.1487 19.628 14.0006 19.6278C13.8525 19.6276 13.7059 19.5982 13.5693 19.5413C13.4326 19.4843 13.3085 19.401 13.2041 19.296Z" fill="black"/>
</svg>
