<svg width="40" height="41" viewBox="0 0 40 41" fill="none" xmlns="http://www.w3.org/2000/svg">
<path d="M0.499997 20.5999C0.499998 9.8303 9.23045 1.09986 20 1.09986C30.7696 1.09986 39.5 9.83031 39.5 20.5999C39.5 31.3694 30.7695 40.0999 20 40.0999C9.23044 40.0999 0.499995 31.3694 0.499997 20.5999Z" fill="#E1FF33"/>
<path d="M0.499997 20.5999C0.499998 9.8303 9.23045 1.09986 20 1.09986C30.7696 1.09986 39.5 9.83031 39.5 20.5999C39.5 31.3694 30.7695 40.0999 20 40.0999C9.23044 40.0999 0.499995 31.3694 0.499997 20.5999Z" stroke="black"/>
<path d="M25.2959 21.3958L17.7959 28.8958C17.5846 29.1071 17.2979 29.2258 16.999 29.2258C16.7001 29.2258 16.4135 29.1071 16.2021 28.8958C15.9908 28.6844 15.8721 28.3978 15.8721 28.0989C15.8721 27.8 15.9908 27.5133 16.2021 27.302L22.9062 20.5998L16.204 13.8958C16.0994 13.7911 16.0164 13.6669 15.9597 13.5301C15.9031 13.3934 15.8739 13.2469 15.8739 13.0989C15.8739 12.9509 15.9031 12.8043 15.9597 12.6676C16.0164 12.5309 16.0994 12.4066 16.204 12.302C16.3087 12.1974 16.4329 12.1143 16.5696 12.0577C16.7064 12.0011 16.8529 11.9719 17.0009 11.9719C17.1489 11.9719 17.2954 12.0011 17.4322 12.0577C17.5689 12.1143 17.6931 12.1974 17.7978 12.302L25.2978 19.802C25.4025 19.9066 25.4856 20.0309 25.5422 20.1677C25.5988 20.3046 25.6279 20.4512 25.6277 20.5993C25.6275 20.7473 25.5981 20.8939 25.5412 21.0306C25.4843 21.1673 25.4009 21.2914 25.2959 21.3958Z" fill="black"/>
</svg>
