<svg width="205" height="64" viewBox="0 0 205 64" fill="none" xmlns="http://www.w3.org/2000/svg">
<path d="M184.895 11.9846C173.837 11.9846 164.88 20.9421 164.88 32C164.88 43.0579 173.837 52.0154 184.895 52.0154C195.953 52.0154 204.911 43.0579 204.911 32C204.911 20.9421 195.953 11.9846 184.895 11.9846ZM184.895 42.0077C179.372 42.0077 174.887 37.5228 174.887 32C174.887 26.4772 179.372 21.9923 184.895 21.9923C190.418 21.9923 194.903 26.4772 194.903 32C194.903 37.5228 190.418 42.0077 184.895 42.0077Z" fill="black"/>
<path d="M89.2658 41.7853V32C89.2658 20.9421 80.3083 11.9846 69.2504 11.9846C58.1924 11.9846 49.2349 20.9421 49.2349 32C49.2349 43.0579 58.1924 52.0154 69.2504 52.0154C74.5137 52.0154 79.2951 49.9768 82.8782 46.6656C85.5963 49.8039 89.6117 51.8054 94.0967 51.8054V41.7977H89.2781L89.2658 41.7853ZM69.2504 42.0077C63.7276 42.0077 59.2426 37.5228 59.2426 32C59.2426 26.4772 63.7276 21.9923 69.2504 21.9923C74.7731 21.9923 79.2581 26.4772 79.2581 32C79.2581 37.5351 74.7731 42.0077 69.2504 42.0077Z" fill="black"/>
<path d="M122.304 51.7931C125.968 51.7931 128.938 48.8226 128.938 45.1583C128.938 41.494 125.968 38.5236 122.304 38.5236C118.639 38.5236 115.669 41.494 115.669 45.1583C115.669 48.8226 118.639 51.7931 122.304 51.7931Z" fill="black"/>
<path d="M157.64 39.1537C155.836 40.9205 153.365 42.0077 150.634 42.0077C145.111 42.0077 140.626 37.5228 140.626 32C140.626 26.4772 145.111 21.9923 150.634 21.9923C153.439 21.9923 155.972 23.1413 157.788 25.007L164.867 17.9274C161.235 14.2579 156.206 11.9846 150.634 11.9846C139.576 11.9846 130.619 20.9421 130.619 32C130.619 43.0579 139.576 52.0154 150.634 52.0154C156.12 52.0154 161.099 49.8039 164.719 46.2332L157.64 39.1537Z" fill="black"/>
<path d="M25.8341 11.9846C20.5708 11.9846 15.7893 14.0232 12.2063 17.3344C9.48818 14.1961 5.47274 12.1946 0.987793 12.1946V22.2023H5.80633V63.9877H15.8141V49.322C18.7546 51.027 22.177 52.0031 25.8218 52.0031C36.8797 52.0031 45.8372 43.0456 45.8372 31.9876C45.8372 20.9297 36.8797 11.9722 25.8218 11.9722L25.8341 11.9846ZM25.8341 42.0077C20.3113 42.0077 15.8264 37.5228 15.8264 32C15.8264 26.4649 20.3113 21.9923 25.8341 21.9923C31.3569 21.9923 35.8419 26.4772 35.8419 32C35.8419 37.5228 31.3569 42.0077 25.8341 42.0077Z" fill="black"/>
<path d="M112.284 51.7931V41.7853H107.465V0H97.4573V36.9668C97.4573 45.1583 104.092 51.7931 112.284 51.7931Z" fill="black"/>
</svg>
