<svg width="253" height="79" viewBox="0 0 253 79" fill="none" xmlns="http://www.w3.org/2000/svg">
<path d="M228.264 14.7934C214.599 14.7934 203.528 25.8504 203.528 39.5C203.528 53.1496 214.599 64.2066 228.264 64.2066C241.93 64.2066 253 53.1496 253 39.5C253 25.8504 241.93 14.7934 228.264 14.7934ZM228.264 51.8533C221.439 51.8533 215.896 46.3172 215.896 39.5C215.896 32.6828 221.439 27.1467 228.264 27.1467C235.09 27.1467 240.632 32.6828 240.632 39.5C240.632 46.3172 235.09 51.8533 228.264 51.8533Z" fill="white"/>
<path d="M110.082 51.5788V39.5C110.082 25.8504 99.012 14.7934 85.3462 14.7934C71.6805 14.7934 60.6104 25.8504 60.6104 39.5C60.6104 53.1496 71.6805 64.2066 85.3462 64.2066C91.8508 64.2066 97.76 61.6902 102.188 57.6029C105.547 61.4766 110.51 63.9473 116.052 63.9473V51.594H110.097L110.082 51.5788ZM85.3462 51.8533C78.521 51.8533 72.9783 46.3172 72.9783 39.5C72.9783 32.6828 78.521 27.1467 85.3462 27.1467C92.1715 27.1467 97.7141 32.6828 97.7141 39.5C97.7141 46.3324 92.1715 51.8533 85.3462 51.8533Z" fill="white"/>
<path d="M150.911 63.932C155.44 63.932 159.111 60.2654 159.111 55.7423C159.111 51.2192 155.44 47.5525 150.911 47.5525C146.383 47.5525 142.712 51.2192 142.712 55.7423C142.712 60.2654 146.383 63.932 150.911 63.932Z" fill="white"/>
<path d="M194.581 48.3303C192.352 50.5112 189.298 51.8533 185.923 51.8533C179.098 51.8533 173.555 46.3172 173.555 39.5C173.555 32.6828 179.098 27.1467 185.923 27.1467C189.389 27.1467 192.52 28.5651 194.764 30.868L203.513 22.1292C199.024 17.5996 192.81 14.7934 185.923 14.7934C172.258 14.7934 161.188 25.8504 161.188 39.5C161.188 53.1496 172.258 64.2066 185.923 64.2066C192.703 64.2066 198.856 61.4766 203.33 57.0691L194.581 48.3303Z" fill="white"/>
<path d="M31.6909 14.7934C25.1863 14.7934 19.2772 17.3098 14.8491 21.3971C11.49 17.5234 6.52752 15.0527 0.984863 15.0527V27.406H6.93978V78.9847H19.3077V60.8819C22.9417 62.9865 27.1712 64.1913 31.6756 64.1913C45.3414 64.1913 56.4114 53.1344 56.4114 39.4847C56.4114 25.8351 45.3414 14.7782 31.6756 14.7782L31.6909 14.7934ZM31.6909 51.8533C24.8656 51.8533 19.323 46.3172 19.323 39.5C19.323 32.6676 24.8656 27.1467 31.6909 27.1467C38.5161 27.1467 44.0588 32.6828 44.0588 39.5C44.0588 46.3172 38.5161 51.8533 31.6909 51.8533Z" fill="white"/>
<path d="M138.528 63.932V51.5788H132.573V0H120.205V45.6309C120.205 55.7423 128.405 63.932 138.528 63.932Z" fill="white"/>
</svg>
