<svg width="171" height="53" viewBox="0 0 171 53" fill="none" xmlns="http://www.w3.org/2000/svg">
<path d="M154.313 10.5709C145.094 10.5709 137.626 17.8489 137.626 26.8335C137.626 35.8181 145.094 43.096 154.313 43.096C163.532 43.096 171 35.8181 171 26.8335C171 17.8489 163.532 10.5709 154.313 10.5709ZM154.313 34.9648C149.709 34.9648 145.97 31.3208 145.97 26.8335C145.97 22.3462 149.709 18.7022 154.313 18.7022C158.918 18.7022 162.657 22.3462 162.657 26.8335C162.657 31.3208 158.918 34.9648 154.313 34.9648Z" fill="black"/>
<path d="M74.5871 34.7841V26.8335C74.5871 17.8489 67.1192 10.5709 57.9002 10.5709C48.6812 10.5709 41.2133 17.8489 41.2133 26.8335C41.2133 35.8181 48.6812 43.096 57.9002 43.096C62.2882 43.096 66.2745 41.4397 69.2617 38.7493C71.5278 41.2991 74.8755 42.9254 78.6146 42.9254V34.7941H74.5974L74.5871 34.7841ZM57.9002 34.9648C53.2959 34.9648 49.5568 31.3208 49.5568 26.8335C49.5568 22.3462 53.2959 18.7022 57.9002 18.7022C62.5045 18.7022 66.2436 22.3462 66.2436 26.8335C66.2436 31.3308 62.5045 34.9648 57.9002 34.9648Z" fill="black"/>
<path d="M102.131 42.9154C105.186 42.9154 107.662 40.5018 107.662 37.5246C107.662 34.5474 105.186 32.1339 102.131 32.1339C99.0758 32.1339 96.5993 34.5474 96.5993 37.5246C96.5993 40.5018 99.0758 42.9154 102.131 42.9154Z" fill="black"/>
<path d="M131.59 32.6459C130.086 34.0814 128.026 34.9648 125.75 34.9648C121.145 34.9648 117.406 31.3208 117.406 26.8335C117.406 22.3462 121.145 18.7022 125.75 18.7022C128.088 18.7022 130.2 19.6358 131.714 21.1516L137.616 15.3995C134.588 12.4181 130.395 10.5709 125.75 10.5709C116.531 10.5709 109.063 17.8489 109.063 26.8335C109.063 35.8181 116.531 43.096 125.75 43.096C130.323 43.096 134.474 41.2991 137.492 38.398L131.59 32.6459Z" fill="black"/>
<path d="M21.7041 10.5709C17.3161 10.5709 13.3298 12.2273 10.3426 14.9177C8.07651 12.3679 4.72884 10.7416 0.989746 10.7416V18.8729H5.00695V52.8235H13.3504V40.9076C15.8019 42.293 18.6552 43.086 21.6938 43.086C30.9128 43.086 38.3807 35.808 38.3807 26.8235C38.3807 17.8389 30.9128 10.5609 21.6938 10.5609L21.7041 10.5709ZM21.7041 34.9648C17.0998 34.9648 13.3607 31.3208 13.3607 26.8335C13.3607 22.3362 17.0998 18.7022 21.7041 18.7022C26.3085 18.7022 30.0476 22.3462 30.0476 26.8335C30.0476 31.3208 26.3085 34.9648 21.7041 34.9648Z" fill="black"/>
<path d="M93.777 42.9154V34.7841H89.7597V0.833496H81.4163V30.869C81.4163 37.5246 86.9477 42.9154 93.777 42.9154Z" fill="black"/>
</svg>
