<svg width="173" height="54" viewBox="0 0 173 54" fill="none" xmlns="http://www.w3.org/2000/svg">
<path d="M156.117 10.112C146.789 10.112 139.234 17.6699 139.234 27C139.234 36.3301 146.789 43.888 156.117 43.888C165.444 43.888 173 36.3301 173 27C173 17.6699 165.444 10.112 156.117 10.112ZM156.117 35.444C151.458 35.444 147.675 31.6598 147.675 27C147.675 22.3402 151.458 18.556 156.117 18.556C160.775 18.556 164.558 22.3402 164.558 27C164.558 31.6598 160.775 35.444 156.117 35.444Z" fill="black"/>
<path d="M75.4527 35.2564V27C75.4527 17.6699 67.8969 10.112 58.5695 10.112C49.2421 10.112 41.6863 17.6699 41.6863 27C41.6863 36.3301 49.2421 43.888 58.5695 43.888C63.0091 43.888 67.0423 42.168 70.0646 39.3741C72.3574 42.022 75.7445 43.7108 79.5276 43.7108V35.2668H75.4631L75.4527 35.2564ZM58.5695 35.444C53.911 35.444 50.1279 31.6598 50.1279 27C50.1279 22.3402 53.911 18.556 58.5695 18.556C63.228 18.556 67.0111 22.3402 67.0111 27C67.0111 31.6703 63.228 35.444 58.5695 35.444Z" fill="black"/>
<path d="M103.32 43.7004C106.411 43.7004 108.917 41.194 108.917 38.1023C108.917 35.0106 106.411 32.5042 103.32 32.5042C100.23 32.5042 97.7239 35.0106 97.7239 38.1023C97.7239 41.194 100.23 43.7004 103.32 43.7004Z" fill="black"/>
<path d="M133.126 33.0359C131.605 34.5266 129.521 35.444 127.217 35.444C122.559 35.444 118.776 31.6598 118.776 27C118.776 22.3402 122.559 18.556 127.217 18.556C129.583 18.556 131.72 19.5255 133.252 21.0996L139.223 15.1263C136.159 12.0301 131.918 10.112 127.217 10.112C117.89 10.112 110.334 17.6699 110.334 27C110.334 36.3301 117.89 43.888 127.217 43.888C131.845 43.888 136.045 42.022 139.098 39.0093L133.126 33.0359Z" fill="black"/>
<path d="M21.9476 10.112C17.5079 10.112 13.4747 11.832 10.4524 14.6259C8.15964 11.978 4.77259 10.2892 0.989502 10.2892V18.7332H5.05397V53.9896H13.4956V41.6154C15.9759 43.0541 18.8627 43.8776 21.9372 43.8776C31.2646 43.8776 38.8203 36.3197 38.8203 26.9896C38.8203 17.6595 31.2646 10.1015 21.9372 10.1015L21.9476 10.112ZM21.9476 35.444C17.2891 35.444 13.506 31.6598 13.506 27C13.506 22.3297 17.2891 18.556 21.9476 18.556C26.6061 18.556 30.3892 22.3402 30.3892 27C30.3892 31.6598 26.6061 35.444 21.9476 35.444Z" fill="black"/>
<path d="M94.8683 43.7004V35.2564H90.8039V0H82.3623V31.1907C82.3623 38.1023 87.9587 43.7004 94.8683 43.7004Z" fill="black"/>
</svg>
