<svg width="253" height="80" viewBox="0 0 253 80" fill="none" xmlns="http://www.w3.org/2000/svg">
<path d="M227.764 14.9634C214.098 14.9634 203.028 26.0203 203.028 39.6699C203.028 53.3195 214.098 64.3765 227.764 64.3765C241.43 64.3765 252.5 53.3195 252.5 39.6699C252.5 26.0203 241.43 14.9634 227.764 14.9634ZM227.764 52.0232C220.939 52.0232 215.396 46.4871 215.396 39.6699C215.396 32.8527 220.939 27.3166 227.764 27.3166C234.589 27.3166 240.132 32.8527 240.132 39.6699C240.132 46.4871 234.589 52.0232 227.764 52.0232Z" fill="white"/>
<path d="M109.582 51.7487V39.6699C109.582 26.0203 98.5118 14.9634 84.846 14.9634C71.1802 14.9634 60.1102 26.0203 60.1102 39.6699C60.1102 53.3195 71.1802 64.3765 84.846 64.3765C91.3506 64.3765 97.2597 61.8601 101.688 57.7728C105.047 61.6466 110.009 64.1172 115.552 64.1172V51.7639H109.597L109.582 51.7487ZM84.846 52.0232C78.0207 52.0232 72.4781 46.4871 72.4781 39.6699C72.4781 32.8527 78.0207 27.3166 84.846 27.3166C91.6712 27.3166 97.2139 32.8527 97.2139 39.6699C97.2139 46.5024 91.6712 52.0232 84.846 52.0232Z" fill="white"/>
<path d="M150.411 64.102C154.94 64.102 158.611 60.4353 158.611 55.9122C158.611 51.3891 154.94 47.7224 150.411 47.7224C145.883 47.7224 142.212 51.3891 142.212 55.9122C142.212 60.4353 145.883 64.102 150.411 64.102Z" fill="white"/>
<path d="M194.081 48.5002C191.851 50.6811 188.798 52.0232 185.423 52.0232C178.598 52.0232 173.055 46.4871 173.055 39.6699C173.055 32.8527 178.598 27.3166 185.423 27.3166C188.889 27.3166 192.019 28.735 194.264 31.0379L203.013 22.2991C198.524 17.7695 192.309 14.9634 185.423 14.9634C171.757 14.9634 160.687 26.0203 160.687 39.6699C160.687 53.3195 171.757 64.3765 185.423 64.3765C192.203 64.3765 198.356 61.6466 202.83 57.239L194.081 48.5002Z" fill="white"/>
<path d="M31.1906 14.9634C24.686 14.9634 18.7769 17.4798 14.3489 21.567C10.9897 17.6933 6.02728 15.2226 0.484619 15.2226V27.5759H6.43954V79.1547H18.8075V61.0518C22.4415 63.1564 26.671 64.3612 31.1754 64.3612C44.8411 64.3612 55.9112 53.3043 55.9112 39.6547C55.9112 26.0051 44.8411 14.9481 31.1754 14.9481L31.1906 14.9634ZM31.1906 52.0232C24.3654 52.0232 18.8227 46.4871 18.8227 39.6699C18.8227 32.8375 24.3654 27.3166 31.1906 27.3166C38.0159 27.3166 43.5585 32.8527 43.5585 39.6699C43.5585 46.4871 38.0159 52.0232 31.1906 52.0232Z" fill="white"/>
<path d="M138.028 64.102V51.7487H132.073V0.169922H119.705V45.8008C119.705 55.9122 127.905 64.102 138.028 64.102Z" fill="white"/>
</svg>
