<svg width="44" height="44" viewBox="0 0 44 44" fill="none" xmlns="http://www.w3.org/2000/svg">
<path d="M35.8341 32.9158C36.2216 33.3032 36.4393 33.8288 36.4393 34.3767C36.4393 34.9247 36.2216 35.4502 35.8341 35.8377C35.4467 36.2251 34.9212 36.4428 34.3732 36.4428C33.8252 36.4428 33.2997 36.2251 32.9123 35.8377L21.9999 24.9219L11.0841 35.8342C10.6967 36.2217 10.1712 36.4394 9.62321 36.4394C9.07525 36.4394 8.54973 36.2217 8.16227 35.8342C7.7748 35.4468 7.55713 34.9212 7.55713 34.3733C7.55713 33.8253 7.7748 33.2998 8.16227 32.9123L19.0781 22L8.16571 11.0842C7.77824 10.6968 7.56057 10.1712 7.56057 9.62328C7.56057 9.07532 7.77824 8.54981 8.16571 8.16234C8.55317 7.77488 9.07869 7.5572 9.62664 7.5572C10.1746 7.5572 10.7001 7.77488 11.0876 8.16234L21.9999 19.0781L32.9157 8.16062C33.3032 7.77316 33.8287 7.55548 34.3766 7.55548C34.9246 7.55548 35.4501 7.77316 35.8376 8.16062C36.225 8.54809 36.4427 9.0736 36.4427 9.62156C36.4427 10.1695 36.225 10.695 35.8376 11.0825L24.9218 22L35.8341 32.9158Z" fill="white"/>
</svg>
