<svg width="60" height="60" viewBox="0 0 60 60" fill="none" xmlns="http://www.w3.org/2000/svg">
<path d="M54.375 48.75C54.375 49.2473 54.1775 49.7242 53.8258 50.0758C53.4742 50.4275 52.9973 50.625 52.5 50.625H7.5C7.00272 50.625 6.52581 50.4275 6.17417 50.0758C5.82254 49.7242 5.625 49.2473 5.625 48.75V11.25C5.625 10.7527 5.82254 10.2758 6.17417 9.92418C6.52581 9.57254 7.00272 9.375 7.5 9.375C7.99728 9.375 8.47419 9.57254 8.82582 9.92418C9.17746 10.2758 9.375 10.7527 9.375 11.25V33.368L21.2648 22.9688C21.5884 22.6855 21.9994 22.5221 22.4291 22.5059C22.8588 22.4897 23.281 22.6217 23.625 22.8797L37.4086 33.218L51.2648 21.0938C51.4465 20.9139 51.6631 20.7731 51.9011 20.68C52.1392 20.5869 52.3938 20.5435 52.6493 20.5524C52.9048 20.5613 53.1557 20.6224 53.3868 20.7319C53.6178 20.8413 53.824 20.9969 53.9927 21.1889C54.1614 21.381 54.289 21.6055 54.3678 21.8487C54.4465 22.092 54.4747 22.3487 54.4506 22.6032C54.4264 22.8577 54.3505 23.1046 54.2275 23.3286C54.1045 23.5527 53.9369 23.7493 53.7352 23.9062L38.7352 37.0312C38.4116 37.3145 38.0006 37.4779 37.5709 37.4941C37.1412 37.5103 36.719 37.3783 36.375 37.1203L22.5914 26.7867L9.375 38.3508V46.875H52.5C52.9973 46.875 53.4742 47.0725 53.8258 47.4242C54.1775 47.7758 54.375 48.2527 54.375 48.75Z" fill="#E1FF33"/>
</svg>
