<svg width="60" height="61" viewBox="0 0 60 61" fill="none" xmlns="http://www.w3.org/2000/svg">
<path d="M54.375 48.9282C54.375 49.4255 54.1775 49.9024 53.8258 50.2541C53.4742 50.6057 52.9973 50.8032 52.5 50.8032H7.5C7.00272 50.8032 6.52581 50.6057 6.17417 50.2541C5.82254 49.9024 5.625 49.4255 5.625 48.9282V11.4282C5.625 10.9309 5.82254 10.454 6.17417 10.1024C6.52581 9.75077 7.00272 9.55322 7.5 9.55322C7.99728 9.55322 8.47419 9.75077 8.82582 10.1024C9.17746 10.454 9.375 10.9309 9.375 11.4282V33.5462L21.2648 23.147C21.5884 22.8638 21.9994 22.7003 22.4291 22.6841C22.8588 22.6679 23.281 22.7999 23.625 23.0579L37.4086 33.3962L51.2648 21.272C51.4465 21.0921 51.6631 20.9513 51.9011 20.8583C52.1392 20.7652 52.3938 20.7217 52.6493 20.7307C52.9048 20.7396 53.1557 20.8006 53.3868 20.9101C53.6178 21.0196 53.824 21.1751 53.9927 21.3672C54.1614 21.5592 54.289 21.7838 54.3678 22.027C54.4465 22.2702 54.4747 22.5269 54.4506 22.7814C54.4264 23.0359 54.3505 23.2828 54.2275 23.5069C54.1045 23.731 53.9369 23.9275 53.7352 24.0845L38.7352 37.2095C38.4116 37.4927 38.0006 37.6561 37.5709 37.6723C37.1412 37.6885 36.719 37.5566 36.375 37.2985L22.5914 26.9649L9.375 38.529V47.0532H52.5C52.9973 47.0532 53.4742 47.2508 53.8258 47.6024C54.1775 47.954 54.375 48.4309 54.375 48.9282Z" fill="#E1FF33"/>
</svg>
