<svg width="61" height="61" viewBox="0 0 61 61" fill="none" xmlns="http://www.w3.org/2000/svg">
<path d="M30.5 5.80322C25.6791 5.80322 20.9664 7.23279 16.958 9.91115C12.9495 12.5895 9.82533 16.3964 7.98045 20.8503C6.13556 25.3043 5.65286 30.2053 6.59337 34.9335C7.53388 39.6618 9.85538 44.005 13.2643 47.4139C16.6732 50.8229 21.0164 53.1443 25.7447 54.0849C30.473 55.0254 35.374 54.5427 39.8279 52.6978C44.2819 50.8529 48.0887 47.7287 50.7671 43.7202C53.4454 39.7118 54.875 34.9991 54.875 30.1782C54.8682 23.7157 52.2979 17.5198 47.7282 12.95C43.1585 8.38031 36.9626 5.81005 30.5 5.80322ZM30.5 50.8032C26.4208 50.8032 22.4331 49.5936 19.0414 47.3273C15.6496 45.061 13.0061 41.8398 11.445 38.0711C9.88394 34.3023 9.47549 30.1553 10.2713 26.1545C11.0671 22.1536 13.0315 18.4786 15.9159 15.5941C18.8004 12.7097 22.4754 10.7453 26.4763 9.94953C30.4771 9.15371 34.6241 9.56215 38.3929 11.1232C42.1616 12.6843 45.3828 15.3278 47.6491 18.7196C49.9154 22.1113 51.125 26.099 51.125 30.1782C51.1188 35.6464 48.9438 40.8889 45.0772 44.7554C41.2106 48.622 35.9682 50.797 30.5 50.8032ZM23.2508 23.6767C24.3104 25.68 24.8643 27.9119 24.8643 30.1782C24.8643 32.4445 24.3104 34.6765 23.2508 36.6798C23.1387 36.9027 22.9833 37.101 22.7936 37.2631C22.6039 37.4252 22.3838 37.5477 22.1461 37.6237C21.9085 37.6996 21.658 37.7273 21.4095 37.7052C21.161 37.6831 20.9194 37.6116 20.6988 37.495C20.4783 37.3783 20.2833 37.2188 20.1251 37.0258C19.967 36.8328 19.849 36.6102 19.7781 36.371C19.7071 36.1318 19.6846 35.8808 19.7118 35.6328C19.739 35.3848 19.8155 35.1447 19.9367 34.9267C20.7214 33.4669 21.1321 31.8355 21.1321 30.1782C21.1321 28.521 20.7214 26.8895 19.9367 25.4298C19.7164 24.9915 19.6766 24.4843 19.8258 24.017C19.9751 23.5498 20.3016 23.1596 20.7352 22.9302C21.1688 22.7008 21.675 22.6505 22.1453 22.79C22.6156 22.9296 23.0125 23.2479 23.2508 23.6767ZM36.3758 16.1767C38.682 20.4858 39.8886 25.2978 39.8886 30.1853C39.8886 35.0728 38.682 39.8847 36.3758 44.1938C36.1261 44.6038 35.7288 44.9023 35.2656 45.0281C34.8025 45.1538 34.3087 45.0971 33.886 44.8697C33.4634 44.6423 33.144 44.2615 32.9937 43.8057C32.8434 43.3499 32.8736 42.8538 33.0781 42.4196C35.0948 38.6545 36.1501 34.4494 36.1501 30.1782C36.1501 25.907 35.0948 21.702 33.0781 17.9368C32.8438 17.498 32.7934 16.984 32.938 16.508C33.0826 16.032 33.4104 15.6329 33.8492 15.3985C34.2881 15.1642 34.802 15.1138 35.2781 15.2584C35.7541 15.403 36.1532 15.7308 36.3875 16.1696L36.3758 16.1767ZM29.8133 19.9267C31.4966 23.0832 32.377 26.6056 32.377 30.1829C32.377 33.7602 31.4966 37.2826 29.8133 40.4392C29.7001 40.6608 29.5438 40.8578 29.3537 41.0184C29.1635 41.1791 28.9433 41.3003 28.7058 41.375C28.4684 41.4496 28.2184 41.4762 27.9705 41.4533C27.7227 41.4303 27.4818 41.3582 27.2621 41.2412C27.0424 41.1242 26.8482 40.9646 26.6908 40.7717C26.5334 40.5789 26.416 40.3566 26.3454 40.1179C26.2749 39.8791 26.2525 39.6288 26.2797 39.3813C26.3069 39.1339 26.3832 38.8943 26.5039 38.6767C27.8983 36.0626 28.6277 33.1456 28.6277 30.1829C28.6277 27.2203 27.8983 24.3032 26.5039 21.6892C26.3832 21.4715 26.3069 21.2319 26.2797 20.9845C26.2525 20.7371 26.2749 20.4867 26.3454 20.248C26.416 20.0092 26.5334 19.787 26.6908 19.5941C26.8482 19.4012 27.0424 19.2416 27.2621 19.1246C27.4818 19.0076 27.7227 18.9355 27.9705 18.9125C28.2184 18.8896 28.4684 18.9162 28.7058 18.9909C28.9433 19.0655 29.1635 19.1867 29.3537 19.3474C29.5438 19.508 29.7001 19.705 29.8133 19.9267Z" fill="#E1FF33"/>
</svg>
