<svg width="61" height="60" viewBox="0 0 61 60" fill="none" xmlns="http://www.w3.org/2000/svg">
<path d="M30.5 5.625C25.6791 5.625 20.9664 7.05457 16.958 9.73293C12.9495 12.4113 9.82533 16.2181 7.98045 20.6721C6.13556 25.126 5.65286 30.027 6.59337 34.7553C7.53388 39.4836 9.85538 43.8268 13.2643 47.2357C16.6732 50.6446 21.0164 52.9661 25.7447 53.9066C30.473 54.8472 35.374 54.3644 39.8279 52.5196C44.2819 50.6747 48.0887 47.5505 50.7671 43.542C53.4454 39.5336 54.875 34.8209 54.875 30C54.8682 23.5374 52.2979 17.3415 47.7282 12.7718C43.1585 8.20209 36.9626 5.63182 30.5 5.625ZM30.5 50.625C26.4208 50.625 22.4331 49.4154 19.0414 47.1491C15.6496 44.8828 13.0061 41.6616 11.445 37.8928C9.88394 34.1241 9.47549 29.9771 10.2713 25.9763C11.0671 21.9754 13.0315 18.3004 15.9159 15.4159C18.8004 12.5315 22.4754 10.5671 26.4763 9.7713C30.4771 8.97548 34.6241 9.38393 38.3929 10.945C42.1616 12.506 45.3828 15.1496 47.6491 18.5414C49.9154 21.9331 51.125 25.9208 51.125 30C51.1188 35.4682 48.9438 40.7106 45.0772 44.5772C41.2106 48.4438 35.9682 50.6188 30.5 50.625ZM23.2508 23.4984C24.3104 25.5018 24.8643 27.7337 24.8643 30C24.8643 32.2663 24.3104 34.4982 23.2508 36.5016C23.1387 36.7245 22.9833 36.9228 22.7936 37.0849C22.6039 37.2469 22.3838 37.3695 22.1461 37.4454C21.9085 37.5214 21.658 37.5491 21.4095 37.527C21.161 37.5049 20.9194 37.4334 20.6988 37.3167C20.4783 37.2001 20.2833 37.0406 20.1251 36.8476C19.967 36.6546 19.849 36.4319 19.7781 36.1927C19.7071 35.9536 19.6846 35.7026 19.7118 35.4546C19.739 35.2066 19.8155 34.9665 19.9367 34.7484C20.7214 33.2887 21.1321 31.6573 21.1321 30C21.1321 28.3427 20.7214 26.7113 19.9367 25.2516C19.7164 24.8133 19.6766 24.3061 19.8258 23.8388C19.9751 23.3715 20.3016 22.9813 20.7352 22.752C21.1688 22.5226 21.675 22.4723 22.1453 22.6118C22.6156 22.7514 23.0125 23.0697 23.2508 23.4984ZM36.3758 15.9984C38.682 20.3076 39.8886 25.1195 39.8886 30.007C39.8886 34.8945 38.682 39.7064 36.3758 44.0156C36.1261 44.4255 35.7288 44.7241 35.2656 44.8498C34.8025 44.9756 34.3087 44.9189 33.886 44.6915C33.4634 44.4641 33.144 44.0833 32.9937 43.6275C32.8434 43.1717 32.8736 42.6756 33.0781 42.2414C35.0948 38.4763 36.1501 34.2712 36.1501 30C36.1501 25.7288 35.0948 21.5237 33.0781 17.7586C32.8438 17.3197 32.7934 16.8058 32.938 16.3298C33.0826 15.8537 33.4104 15.4547 33.8492 15.2203C34.2881 14.986 34.802 14.9356 35.2781 15.0802C35.7541 15.2248 36.1532 15.5526 36.3875 15.9914L36.3758 15.9984ZM29.8133 19.7484C31.4966 22.905 32.377 26.4274 32.377 30.0047C32.377 33.582 31.4966 37.1044 29.8133 40.2609C29.7001 40.4826 29.5438 40.6795 29.3537 40.8402C29.1635 41.0009 28.9433 41.1221 28.7058 41.1967C28.4684 41.2714 28.2184 41.298 27.9705 41.2751C27.7227 41.2521 27.4818 41.18 27.2621 41.063C27.0424 40.946 26.8482 40.7864 26.6908 40.5935C26.5334 40.4006 26.416 40.1784 26.3454 39.9396C26.2749 39.7009 26.2525 39.4505 26.2797 39.2031C26.3069 38.9557 26.3832 38.7161 26.5039 38.4984C27.8983 35.8844 28.6277 32.9673 28.6277 30.0047C28.6277 27.042 27.8983 24.1249 26.5039 21.5109C26.3832 21.2933 26.3069 21.0537 26.2797 20.8063C26.2525 20.5588 26.2749 20.3084 26.3454 20.0697C26.416 19.831 26.5334 19.6087 26.6908 19.4159C26.8482 19.223 27.0424 19.0634 27.2621 18.9464C27.4818 18.8294 27.7227 18.7573 27.9705 18.7343C28.2184 18.7114 28.4684 18.738 28.7058 18.8126C28.9433 18.8873 29.1635 19.0085 29.3537 19.1692C29.5438 19.3298 29.7001 19.5267 29.8133 19.7484Z" fill="#E1FF33"/>
</svg>
