<svg width="60" height="60" viewBox="0 0 60 60" fill="none" xmlns="http://www.w3.org/2000/svg">
<path d="M30 5.625C25.1791 5.625 20.4664 7.05457 16.458 9.73293C12.4495 12.4113 9.32533 16.2181 7.48045 20.6721C5.63556 25.126 5.15286 30.027 6.09337 34.7553C7.03388 39.4836 9.35538 43.8268 12.7643 47.2357C16.1732 50.6446 20.5164 52.9661 25.2447 53.9066C29.973 54.8472 34.874 54.3644 39.3279 52.5196C43.7819 50.6747 47.5887 47.5505 50.2671 43.542C52.9454 39.5336 54.375 34.8209 54.375 30C54.3682 23.5374 51.7979 17.3415 47.2282 12.7718C42.6585 8.20209 36.4626 5.63182 30 5.625ZM30 50.625C25.9208 50.625 21.9331 49.4154 18.5414 47.1491C15.1496 44.8828 12.5061 41.6616 10.945 37.8928C9.38394 34.1241 8.97549 29.9771 9.77131 25.9763C10.5671 21.9754 12.5315 18.3004 15.4159 15.4159C18.3004 12.5315 21.9754 10.5671 25.9763 9.7713C29.9771 8.97548 34.1241 9.38393 37.8929 10.945C41.6616 12.506 44.8828 15.1496 47.1491 18.5414C49.4154 21.9331 50.625 25.9208 50.625 30C50.6188 35.4682 48.4438 40.7106 44.5772 44.5772C40.7106 48.4438 35.4682 50.6188 30 50.625ZM22.7508 23.4984C23.8104 25.5018 24.3643 27.7337 24.3643 30C24.3643 32.2663 23.8104 34.4982 22.7508 36.5016C22.6387 36.7245 22.4833 36.9228 22.2936 37.0849C22.1039 37.2469 21.8838 37.3695 21.6461 37.4454C21.4085 37.5214 21.158 37.5491 20.9095 37.527C20.661 37.5049 20.4194 37.4334 20.1988 37.3167C19.9783 37.2001 19.7833 37.0406 19.6251 36.8476C19.467 36.6546 19.349 36.4319 19.2781 36.1927C19.2071 35.9536 19.1846 35.7026 19.2118 35.4546C19.239 35.2066 19.3155 34.9665 19.4367 34.7484C20.2214 33.2887 20.6321 31.6573 20.6321 30C20.6321 28.3427 20.2214 26.7113 19.4367 25.2516C19.2164 24.8133 19.1766 24.3061 19.3258 23.8388C19.4751 23.3715 19.8016 22.9813 20.2352 22.752C20.6688 22.5226 21.175 22.4723 21.6453 22.6118C22.1156 22.7514 22.5125 23.0697 22.7508 23.4984ZM35.8758 15.9984C38.182 20.3076 39.3886 25.1195 39.3886 30.007C39.3886 34.8945 38.182 39.7064 35.8758 44.0156C35.6261 44.4255 35.2288 44.7241 34.7656 44.8498C34.3025 44.9756 33.8087 44.9189 33.386 44.6915C32.9634 44.4641 32.644 44.0833 32.4937 43.6275C32.3434 43.1717 32.3736 42.6756 32.5781 42.2414C34.5948 38.4763 35.6501 34.2712 35.6501 30C35.6501 25.7288 34.5948 21.5237 32.5781 17.7586C32.3438 17.3197 32.2934 16.8058 32.438 16.3298C32.5826 15.8537 32.9104 15.4547 33.3492 15.2203C33.7881 14.986 34.302 14.9356 34.7781 15.0802C35.2541 15.2248 35.6532 15.5526 35.8875 15.9914L35.8758 15.9984ZM29.3133 19.7484C30.9966 22.905 31.877 26.4274 31.877 30.0047C31.877 33.582 30.9966 37.1044 29.3133 40.2609C29.2001 40.4826 29.0438 40.6795 28.8537 40.8402C28.6635 41.0009 28.4433 41.1221 28.2058 41.1967C27.9684 41.2714 27.7184 41.298 27.4705 41.2751C27.2227 41.2521 26.9818 41.18 26.7621 41.063C26.5424 40.946 26.3482 40.7864 26.1908 40.5935C26.0334 40.4006 25.916 40.1784 25.8454 39.9396C25.7749 39.7009 25.7525 39.4505 25.7797 39.2031C25.8069 38.9557 25.8832 38.7161 26.0039 38.4984C27.3983 35.8844 28.1277 32.9673 28.1277 30.0047C28.1277 27.042 27.3983 24.1249 26.0039 21.5109C25.8832 21.2933 25.8069 21.0537 25.7797 20.8063C25.7525 20.5588 25.7749 20.3084 25.8454 20.0697C25.916 19.831 26.0334 19.6087 26.1908 19.4159C26.3482 19.223 26.5424 19.0634 26.7621 18.9464C26.9818 18.8294 27.2227 18.7573 27.4705 18.7343C27.7184 18.7114 27.9684 18.738 28.2058 18.8126C28.4433 18.8873 28.6635 19.0085 28.8537 19.1692C29.0438 19.3298 29.2001 19.5267 29.3133 19.7484Z" fill="#E1FF33"/>
</svg>
