<svg width="61" height="60" viewBox="0 0 61 60" fill="none" xmlns="http://www.w3.org/2000/svg">
<path d="M10.5219 11.7186C10.3202 11.8934 10.1581 12.1093 10.0466 12.3518C9.93499 12.5944 9.87651 12.8579 9.875 13.1248V52.4998C9.875 52.9971 10.0725 53.474 10.4242 53.8257C10.7758 54.1773 11.2527 54.3748 11.75 54.3748C12.2473 54.3748 12.7242 54.1773 13.0758 53.8257C13.4275 53.474 13.625 52.9971 13.625 52.4998V42.1334C19.9039 37.1741 25.3133 39.8483 31.543 42.9326C35.3867 44.8334 39.5258 46.8819 43.9648 46.8819C47.2297 46.8819 50.6539 45.7686 54.2352 42.6631C54.4369 42.4883 54.5989 42.2724 54.7105 42.0299C54.822 41.7873 54.8805 41.5238 54.882 41.2569V13.1248C54.8812 12.7649 54.7768 12.4129 54.5813 12.1107C54.3858 11.8086 54.1074 11.5691 53.7795 11.4208C53.4516 11.2725 53.0879 11.2217 52.7319 11.2745C52.3759 11.3274 52.0426 11.4815 51.7719 11.7186C45.2094 17.3975 39.65 14.6459 33.207 11.4561C26.532 8.14671 18.9641 4.40374 10.5219 11.7186ZM51.125 40.3709C44.8461 45.3303 39.4367 42.6537 33.207 39.5717C27.3477 36.6772 20.8297 33.4475 13.625 37.603V14.0131C19.9039 9.05374 25.3133 11.728 31.543 14.81C37.4023 17.7045 43.9227 20.9342 51.125 16.7787V40.3709Z" fill="#E1FF33"/>
</svg>
