<svg width="61" height="61" viewBox="0 0 61 61" fill="none" xmlns="http://www.w3.org/2000/svg">
<path d="M10.5219 11.8968C10.3202 12.0716 10.1581 12.2875 10.0466 12.5301C9.93499 12.7726 9.87651 13.0361 9.875 13.3031V52.6781C9.875 53.1753 10.0725 53.6523 10.4242 54.0039C10.7758 54.3555 11.2527 54.5531 11.75 54.5531C12.2473 54.5531 12.7242 54.3555 13.0758 54.0039C13.4275 53.6523 13.625 53.1753 13.625 52.6781V42.3116C19.9039 37.3523 25.3133 40.0265 31.543 43.1109C35.3867 45.0116 39.5258 47.0601 43.9648 47.0601C47.2297 47.0601 50.6539 45.9468 54.2352 42.8413C54.4369 42.6665 54.5989 42.4506 54.7105 42.2081C54.822 41.9656 54.8805 41.702 54.882 41.4351V13.3031C54.8812 12.9432 54.7768 12.5911 54.5813 12.289C54.3858 11.9868 54.1074 11.7473 53.7795 11.599C53.4516 11.4507 53.0879 11.4 52.7319 11.4528C52.3759 11.5056 52.0426 11.6597 51.7719 11.8968C45.2094 17.5757 39.65 14.8241 33.207 11.6343C26.532 8.32493 18.9641 4.58196 10.5219 11.8968ZM51.125 40.5491C44.8461 45.5085 39.4367 42.832 33.207 39.7499C27.3477 36.8554 20.8297 33.6257 13.625 37.7812V14.1913C19.9039 9.23196 25.3133 11.9062 31.543 14.9882C37.4023 17.8827 43.9227 21.1124 51.125 16.957V40.5491Z" fill="#E1FF33"/>
</svg>
