<svg width="60" height="60" viewBox="0 0 60 60" fill="none" xmlns="http://www.w3.org/2000/svg">
<path d="M10.0219 11.7186C9.82016 11.8934 9.65811 12.1093 9.54655 12.3518C9.43499 12.5944 9.37651 12.8579 9.375 13.1248V52.4998C9.375 52.9971 9.57254 53.474 9.92418 53.8257C10.2758 54.1773 10.7527 54.3748 11.25 54.3748C11.7473 54.3748 12.2242 54.1773 12.5758 53.8257C12.9275 53.474 13.125 52.9971 13.125 52.4998V42.1334C19.4039 37.1741 24.8133 39.8483 31.043 42.9326C34.8867 44.8334 39.0258 46.8819 43.4648 46.8819C46.7297 46.8819 50.1539 45.7686 53.7352 42.6631C53.9369 42.4883 54.0989 42.2724 54.2105 42.0299C54.322 41.7873 54.3805 41.5238 54.382 41.2569V13.1248C54.3812 12.7649 54.2768 12.4129 54.0813 12.1107C53.8858 11.8086 53.6074 11.5691 53.2795 11.4208C52.9516 11.2725 52.5879 11.2217 52.2319 11.2745C51.8759 11.3274 51.5426 11.4815 51.2719 11.7186C44.7094 17.3975 39.15 14.6459 32.707 11.4561C26.032 8.14671 18.4641 4.40374 10.0219 11.7186ZM50.625 40.3709C44.3461 45.3303 38.9367 42.6537 32.707 39.5717C26.8477 36.6772 20.3297 33.4475 13.125 37.603V14.0131C19.4039 9.05374 24.8133 11.728 31.043 14.81C36.9023 17.7045 43.4227 20.9342 50.625 16.7787V40.3709Z" fill="#E1FF33"/>
</svg>
