<svg width="60" height="61" viewBox="0 0 60 61" fill="none" xmlns="http://www.w3.org/2000/svg">
<path d="M48.75 18.9282H22.5V13.3032C22.5 11.3141 23.2902 9.40644 24.6967 7.99992C26.1032 6.5934 28.0109 5.80322 30 5.80322C33.6023 5.80322 36.8438 8.38135 37.5375 11.8009C37.6405 12.2841 37.93 12.7071 38.3432 12.978C38.7564 13.2489 39.2598 13.3458 39.744 13.2476C40.2282 13.1494 40.6541 12.864 40.929 12.4536C41.204 12.0431 41.3059 11.5407 41.2125 11.0556C40.1531 5.83838 35.4375 2.05322 30 2.05322C27.0173 2.05632 24.1576 3.24259 22.0485 5.3517C19.9394 7.46081 18.7531 10.3205 18.75 13.3032V18.9282H11.25C10.2554 18.9282 9.30161 19.3233 8.59835 20.0266C7.89509 20.7298 7.5 21.6837 7.5 22.6782V48.9282C7.5 49.9228 7.89509 50.8766 8.59835 51.5799C9.30161 52.2831 10.2554 52.6782 11.25 52.6782H48.75C49.7446 52.6782 50.6984 52.2831 51.4016 51.5799C52.1049 50.8766 52.5 49.9228 52.5 48.9282V22.6782C52.5 21.6837 52.1049 20.7298 51.4016 20.0266C50.6984 19.3233 49.7446 18.9282 48.75 18.9282ZM48.75 48.9282H11.25V22.6782H48.75V48.9282Z" fill="#E1FF33"/>
</svg>
