<svg width="60" height="60" viewBox="0 0 60 60" fill="none" xmlns="http://www.w3.org/2000/svg">
<path d="M48.75 18.75H22.5V13.125C22.5 11.1359 23.2902 9.22822 24.6967 7.8217C26.1032 6.41518 28.0109 5.625 30 5.625C33.6023 5.625 36.8438 8.20312 37.5375 11.6227C37.6405 12.1059 37.93 12.5289 38.3432 12.7998C38.7564 13.0707 39.2598 13.1676 39.744 13.0694C40.2282 12.9712 40.6541 12.6858 40.929 12.2754C41.204 11.8649 41.3059 11.3625 41.2125 10.8773C40.1531 5.66016 35.4375 1.875 30 1.875C27.0173 1.8781 24.1576 3.06436 22.0485 5.17348C19.9394 7.28259 18.7531 10.1423 18.75 13.125V18.75H11.25C10.2554 18.75 9.30161 19.1451 8.59835 19.8484C7.89509 20.5516 7.5 21.5054 7.5 22.5V48.75C7.5 49.7446 7.89509 50.6984 8.59835 51.4016C9.30161 52.1049 10.2554 52.5 11.25 52.5H48.75C49.7446 52.5 50.6984 52.1049 51.4016 51.4016C52.1049 50.6984 52.5 49.7446 52.5 48.75V22.5C52.5 21.5054 52.1049 20.5516 51.4016 19.8484C50.6984 19.1451 49.7446 18.75 48.75 18.75ZM48.75 48.75H11.25V22.5H48.75V48.75Z" fill="#E1FF33"/>
</svg>
