<svg width="61" height="60" viewBox="0 0 61 60" fill="none" xmlns="http://www.w3.org/2000/svg">
<path d="M49.25 9.375H11.75C10.7554 9.375 9.80161 9.77009 9.09835 10.4733C8.39509 11.1766 8 12.1304 8 13.125V26.25C8 38.6063 13.9813 46.0945 18.9992 50.2008C24.4039 54.6211 29.7805 56.1211 30.0148 56.1844C30.3371 56.272 30.677 56.272 30.9992 56.1844C31.2336 56.1211 36.6031 54.6211 42.0148 50.2008C47.0188 46.0945 53 38.6063 53 26.25V13.125C53 12.1304 52.6049 11.1766 51.9016 10.4733C51.1984 9.77009 50.2446 9.375 49.25 9.375ZM49.25 26.25C49.25 34.9383 46.0484 41.9906 39.7344 47.2078C36.9858 49.4712 33.8599 51.2325 30.5 52.4109C27.1841 51.253 24.0968 49.523 21.3781 47.2992C14.9891 42.0727 11.75 34.9922 11.75 26.25V13.125H49.25V26.25ZM19.7984 33.2016C19.4466 32.8497 19.249 32.3726 19.249 31.875C19.249 31.3774 19.4466 30.9003 19.7984 30.5484C20.1503 30.1966 20.6274 29.999 21.125 29.999C21.6226 29.999 22.0997 30.1966 22.4516 30.5484L26.75 34.8492L38.5484 23.0484C38.7226 22.8742 38.9295 22.736 39.1571 22.6418C39.3847 22.5475 39.6286 22.499 39.875 22.499C40.1214 22.499 40.3653 22.5475 40.5929 22.6418C40.8205 22.736 41.0274 22.8742 41.2016 23.0484C41.3758 23.2226 41.514 23.4295 41.6082 23.6571C41.7025 23.8847 41.751 24.1286 41.751 24.375C41.751 24.6214 41.7025 24.8653 41.6082 25.0929C41.514 25.3205 41.3758 25.5274 41.2016 25.7016L28.0766 38.8266C27.9024 39.0009 27.6956 39.1392 27.468 39.2336C27.2404 39.3279 26.9964 39.3765 26.75 39.3765C26.5036 39.3765 26.2596 39.3279 26.032 39.2336C25.8044 39.1392 25.5976 39.0009 25.4234 38.8266L19.7984 33.2016Z" fill="#E1FF33"/>
</svg>
