<svg width="61" height="61" viewBox="0 0 61 61" fill="none" xmlns="http://www.w3.org/2000/svg">
<path d="M49.25 9.55322H11.75C10.7554 9.55322 9.80161 9.94831 9.09835 10.6516C8.39509 11.3548 8 12.3087 8 13.3032V26.4282C8 38.7845 13.9813 46.2728 18.9992 50.379C24.4039 54.7993 29.7805 56.2993 30.0148 56.3626C30.3371 56.4503 30.677 56.4503 30.9992 56.3626C31.2336 56.2993 36.6031 54.7993 42.0148 50.379C47.0188 46.2728 53 38.7845 53 26.4282V13.3032C53 12.3087 52.6049 11.3548 51.9016 10.6516C51.1984 9.94831 50.2446 9.55322 49.25 9.55322ZM49.25 26.4282C49.25 35.1165 46.0484 42.1688 39.7344 47.386C36.9858 49.6494 33.8599 51.4107 30.5 52.5892C27.1841 51.4313 24.0968 49.7012 21.3781 47.4774C14.9891 42.2509 11.75 35.1704 11.75 26.4282V13.3032H49.25V26.4282ZM19.7984 33.3798C19.4466 33.028 19.249 32.5508 19.249 32.0532C19.249 31.5557 19.4466 31.0785 19.7984 30.7267C20.1503 30.3748 20.6274 30.1772 21.125 30.1772C21.6226 30.1772 22.0997 30.3748 22.4516 30.7267L26.75 35.0274L38.5484 23.2267C38.7226 23.0525 38.9295 22.9143 39.1571 22.82C39.3847 22.7257 39.6286 22.6772 39.875 22.6772C40.1214 22.6772 40.3653 22.7257 40.5929 22.82C40.8205 22.9143 41.0274 23.0525 41.2016 23.2267C41.3758 23.4009 41.514 23.6077 41.6082 23.8353C41.7025 24.0629 41.751 24.3069 41.751 24.5532C41.751 24.7996 41.7025 25.0435 41.6082 25.2712C41.514 25.4988 41.3758 25.7056 41.2016 25.8798L28.0766 39.0048C27.9024 39.1791 27.6956 39.3174 27.468 39.4118C27.2404 39.5061 26.9964 39.5547 26.75 39.5547C26.5036 39.5547 26.2596 39.5061 26.032 39.4118C25.8044 39.3174 25.5976 39.1791 25.4234 39.0048L19.7984 33.3798Z" fill="#E1FF33"/>
</svg>
