<svg width="239" height="33" viewBox="0 0 239 33" fill="none" xmlns="http://www.w3.org/2000/svg">
<path d="M119.5 10.1699C118.313 10.1699 117.153 10.5218 116.167 11.1811C115.18 11.8404 114.411 12.7775 113.957 13.8738C113.503 14.9702 113.384 16.1766 113.615 17.3405C113.847 18.5043 114.418 19.5734 115.257 20.4126C116.096 21.2517 117.166 21.8231 118.329 22.0546C119.493 22.2861 120.7 22.1673 121.796 21.7132C122.892 21.2591 123.83 20.49 124.489 19.5033C125.148 18.5166 125.5 17.3566 125.5 16.1699C125.498 14.5791 124.866 13.054 123.741 11.9291C122.616 10.8042 121.091 10.1716 119.5 10.1699ZM119.5 19.1699C118.907 19.1699 118.327 18.994 117.833 18.6643C117.34 18.3347 116.955 17.8662 116.728 17.318C116.501 16.7698 116.442 16.1666 116.558 15.5847C116.673 15.0027 116.959 14.4682 117.379 14.0486C117.798 13.629 118.333 13.3433 118.915 13.2276C119.497 13.1118 120.1 13.1712 120.648 13.3983C121.196 13.6253 121.665 14.0099 121.994 14.5032C122.324 14.9966 122.5 15.5766 122.5 16.1699C122.5 16.9656 122.184 17.7286 121.621 18.2912C121.059 18.8539 120.296 19.1699 119.5 19.1699ZM125.5 2.66992H113.5C111.512 2.67224 109.605 3.46316 108.199 4.86918C106.793 6.2752 106.002 8.18151 106 10.1699V22.1699C106.002 24.1583 106.793 26.0646 108.199 27.4707C109.605 28.8767 111.512 29.6676 113.5 29.6699H125.5C127.488 29.6676 129.395 28.8767 130.801 27.4707C132.207 26.0646 132.998 24.1583 133 22.1699V10.1699C132.998 8.18151 132.207 6.2752 130.801 4.86918C129.395 3.46316 127.488 2.67224 125.5 2.66992ZM130 22.1699C130 23.3634 129.526 24.508 128.682 25.3519C127.838 26.1958 126.693 26.6699 125.5 26.6699H113.5C112.307 26.6699 111.162 26.1958 110.318 25.3519C109.474 24.508 109 23.3634 109 22.1699V10.1699C109 8.97645 109.474 7.83185 110.318 6.98794C111.162 6.14403 112.307 5.66992 113.5 5.66992H125.5C126.693 5.66992 127.838 6.14403 128.682 6.98794C129.526 7.83185 130 8.97645 130 10.1699V22.1699ZM128 9.66992C128 10.0655 127.883 10.4522 127.663 10.7811C127.443 11.11 127.131 11.3663 126.765 11.5177C126.4 11.6691 125.998 11.7087 125.61 11.6315C125.222 11.5543 124.865 11.3638 124.586 11.0841C124.306 10.8044 124.116 10.4481 124.038 10.0601C123.961 9.67214 124.001 9.27001 124.152 8.90456C124.304 8.5391 124.56 8.22675 124.889 8.00698C125.218 7.78722 125.604 7.66992 126 7.66992C126.53 7.66992 127.039 7.88064 127.414 8.25571C127.789 8.63078 128 9.13949 128 9.66992Z" fill="white"/>
</svg>
