<svg width="54" height="39" viewBox="0 0 54 39" fill="none" xmlns="http://www.w3.org/2000/svg">
<path d="M49.5 0.761719H4.5C3.50544 0.761719 2.55161 1.15681 1.84835 1.86007C1.14509 2.56333 0.75 3.51716 0.75 4.51172V34.5117C0.75 35.5063 1.14509 36.4601 1.84835 37.1634C2.55161 37.8666 3.50544 38.2617 4.5 38.2617H49.5C50.4946 38.2617 51.4484 37.8666 52.1516 37.1634C52.8549 36.4601 53.25 35.5063 53.25 34.5117V4.51172C53.25 3.51716 52.8549 2.56333 52.1516 1.86007C51.4484 1.15681 50.4946 0.761719 49.5 0.761719ZM49.5 4.51172V10.1367H4.5V4.51172H49.5ZM49.5 34.5117H4.5V13.8867H49.5V34.5117ZM45.75 28.8867C45.75 29.384 45.5525 29.8609 45.2008 30.2125C44.8492 30.5642 44.3723 30.7617 43.875 30.7617H36.375C35.8777 30.7617 35.4008 30.5642 35.0492 30.2125C34.6975 29.8609 34.5 29.384 34.5 28.8867C34.5 28.3894 34.6975 27.9125 35.0492 27.5609C35.4008 27.2093 35.8777 27.0117 36.375 27.0117H43.875C44.3723 27.0117 44.8492 27.2093 45.2008 27.5609C45.5525 27.9125 45.75 28.3894 45.75 28.8867ZM30.75 28.8867C30.75 29.384 30.5525 29.8609 30.2008 30.2125C29.8492 30.5642 29.3723 30.7617 28.875 30.7617H25.125C24.6277 30.7617 24.1508 30.5642 23.7992 30.2125C23.4475 29.8609 23.25 29.384 23.25 28.8867C23.25 28.3894 23.4475 27.9125 23.7992 27.5609C24.1508 27.2093 24.6277 27.0117 25.125 27.0117H28.875C29.3723 27.0117 29.8492 27.2093 30.2008 27.5609C30.5525 27.9125 30.75 28.3894 30.75 28.8867Z" fill="black"/>
</svg>
