<svg width="54" height="38" viewBox="0 0 54 38" fill="none" xmlns="http://www.w3.org/2000/svg">
<path d="M49.5 0.428223H4.5C3.50544 0.428223 2.55161 0.823311 1.84835 1.52657C1.14509 2.22983 0.75 3.18366 0.75 4.17822V34.1782C0.75 35.1728 1.14509 36.1266 1.84835 36.8299C2.55161 37.5331 3.50544 37.9282 4.5 37.9282H49.5C50.4946 37.9282 51.4484 37.5331 52.1516 36.8299C52.8549 36.1266 53.25 35.1728 53.25 34.1782V4.17822C53.25 3.18366 52.8549 2.22983 52.1516 1.52657C51.4484 0.823311 50.4946 0.428223 49.5 0.428223ZM49.5 4.17822V9.80322H4.5V4.17822H49.5ZM49.5 34.1782H4.5V13.5532H49.5V34.1782ZM45.75 28.5532C45.75 29.0505 45.5525 29.5274 45.2008 29.879C44.8492 30.2307 44.3723 30.4282 43.875 30.4282H36.375C35.8777 30.4282 35.4008 30.2307 35.0492 29.879C34.6975 29.5274 34.5 29.0505 34.5 28.5532C34.5 28.0559 34.6975 27.579 35.0492 27.2274C35.4008 26.8758 35.8777 26.6782 36.375 26.6782H43.875C44.3723 26.6782 44.8492 26.8758 45.2008 27.2274C45.5525 27.579 45.75 28.0559 45.75 28.5532ZM30.75 28.5532C30.75 29.0505 30.5525 29.5274 30.2008 29.879C29.8492 30.2307 29.3723 30.4282 28.875 30.4282H25.125C24.6277 30.4282 24.1508 30.2307 23.7992 29.879C23.4475 29.5274 23.25 29.0505 23.25 28.5532C23.25 28.0559 23.4475 27.579 23.7992 27.2274C24.1508 26.8758 24.6277 26.6782 25.125 26.6782H28.875C29.3723 26.6782 29.8492 26.8758 30.2008 27.2274C30.5525 27.579 30.75 28.0559 30.75 28.5532Z" fill="#E1FF33"/>
</svg>
