<svg width="54" height="38" viewBox="0 0 54 38" fill="none" xmlns="http://www.w3.org/2000/svg">
<path d="M49.5 0.25H4.5C3.50544 0.25 2.55161 0.645088 1.84835 1.34835C1.14509 2.05161 0.75 3.00544 0.75 4V34C0.75 34.9946 1.14509 35.9484 1.84835 36.6516C2.55161 37.3549 3.50544 37.75 4.5 37.75H49.5C50.4946 37.75 51.4484 37.3549 52.1516 36.6516C52.8549 35.9484 53.25 34.9946 53.25 34V4C53.25 3.00544 52.8549 2.05161 52.1516 1.34835C51.4484 0.645088 50.4946 0.25 49.5 0.25ZM49.5 4V9.625H4.5V4H49.5ZM49.5 34H4.5V13.375H49.5V34ZM45.75 28.375C45.75 28.8723 45.5525 29.3492 45.2008 29.7008C44.8492 30.0525 44.3723 30.25 43.875 30.25H36.375C35.8777 30.25 35.4008 30.0525 35.0492 29.7008C34.6975 29.3492 34.5 28.8723 34.5 28.375C34.5 27.8777 34.6975 27.4008 35.0492 27.0492C35.4008 26.6975 35.8777 26.5 36.375 26.5H43.875C44.3723 26.5 44.8492 26.6975 45.2008 27.0492C45.5525 27.4008 45.75 27.8777 45.75 28.375ZM30.75 28.375C30.75 28.8723 30.5525 29.3492 30.2008 29.7008C29.8492 30.0525 29.3723 30.25 28.875 30.25H25.125C24.6277 30.25 24.1508 30.0525 23.7992 29.7008C23.4475 29.3492 23.25 28.8723 23.25 28.375C23.25 27.8777 23.4475 27.4008 23.7992 27.0492C24.1508 26.6975 24.6277 26.5 25.125 26.5H28.875C29.3723 26.5 29.8492 26.6975 30.2008 27.0492C30.5525 27.4008 30.75 27.8777 30.75 28.375Z" fill="#E1FF33"/>
</svg>
