<svg width="34" height="54" viewBox="0 0 34 54" fill="none" xmlns="http://www.w3.org/2000/svg">
<path d="M28.25 0.75H5.75C4.25816 0.75 2.82742 1.34263 1.77252 2.39752C0.717632 3.45242 0.125 4.88316 0.125 6.375V47.625C0.125 49.1168 0.717632 50.5476 1.77252 51.6025C2.82742 52.6574 4.25816 53.25 5.75 53.25H28.25C29.7418 53.25 31.1726 52.6574 32.2275 51.6025C33.2824 50.5476 33.875 49.1168 33.875 47.625V6.375C33.875 4.88316 33.2824 3.45242 32.2275 2.39752C31.1726 1.34263 29.7418 0.75 28.25 0.75ZM3.875 12H30.125V42H3.875V12ZM5.75 4.5H28.25C28.7473 4.5 29.2242 4.69754 29.5758 5.04918C29.9275 5.40081 30.125 5.87772 30.125 6.375V8.25H3.875V6.375C3.875 5.87772 4.07254 5.40081 4.42418 5.04918C4.77581 4.69754 5.25272 4.5 5.75 4.5ZM28.25 49.5H5.75C5.25272 49.5 4.77581 49.3025 4.42418 48.9508C4.07254 48.5992 3.875 48.1223 3.875 47.625V45.75H30.125V47.625C30.125 48.1223 29.9275 48.5992 29.5758 48.9508C29.2242 49.3025 28.7473 49.5 28.25 49.5Z" fill="black"/>
</svg>
