<svg width="552" height="700" viewBox="0 0 552 700" fill="none" xmlns="http://www.w3.org/2000/svg">
<path d="M551.937 685.158C551.93 685.038 551.924 684.925 551.911 684.805C551.904 684.685 551.897 684.572 551.884 684.452C551.877 684.333 551.871 684.22 551.857 684.1C551.857 684.027 551.857 683.953 551.844 683.88C551.844 683.874 551.844 683.867 551.844 683.854C551.844 683.847 551.844 683.84 551.844 683.827C551.844 683.714 551.824 683.601 551.817 683.488C551.817 683.488 551.817 683.481 551.817 683.474C551.811 683.355 551.804 683.235 551.791 683.122C551.784 683.002 551.777 682.889 551.764 682.769C551.757 682.65 551.751 682.537 551.737 682.417C551.731 682.297 551.724 682.184 551.711 682.064C551.704 681.945 551.697 681.831 551.684 681.712C551.677 681.592 551.671 681.479 551.657 681.359C551.651 681.239 551.644 681.12 551.631 681.007C551.624 680.887 551.617 680.774 551.604 680.654C551.597 680.534 551.591 680.421 551.577 680.301C551.571 680.182 551.564 680.069 551.551 679.949C551.544 679.829 551.537 679.716 551.524 679.596C551.518 679.477 551.511 679.363 551.497 679.244C551.491 679.124 551.484 679.004 551.471 678.891C551.464 678.771 551.458 678.658 551.444 678.539C551.438 678.419 551.431 678.306 551.418 678.186C551.411 678.066 551.404 677.953 551.391 677.833C551.384 677.714 551.378 677.601 551.364 677.481C551.358 677.361 551.351 677.248 551.338 677.128C551.331 677.009 551.324 676.896 551.311 676.776C551.304 676.656 551.298 676.543 551.284 676.423C551.278 676.303 551.271 676.19 551.258 676.071C551.251 675.951 551.244 675.838 551.231 675.718C551.224 675.598 551.218 675.485 551.204 675.366C551.198 675.246 551.191 675.133 551.178 675.013C551.171 674.893 551.164 674.78 551.151 674.66C551.144 674.541 551.138 674.427 551.124 674.308C551.118 674.188 551.111 674.075 551.098 673.955C551.091 673.836 551.085 673.722 551.071 673.603C551.051 673.37 551.038 673.13 551.018 672.898C551.011 672.778 551.005 672.665 550.991 672.545C549.306 650.573 547.621 628.607 545.935 606.642C541.126 543.226 536.223 479.824 531.38 416.409C528.922 384.318 526.464 352.235 524.006 320.145C522.827 304.738 521.648 289.325 520.469 273.918C519.89 266.388 519.317 258.864 518.737 251.334C514.028 112.895 400.132 -0.305382 258.886 0.000618926C-23.0615 5.58847 -98.6741 377.733 152.398 496.521C162.949 502.129 173.494 507.73 184.046 513.338C197.635 520.529 211.197 527.76 224.78 534.964C247.468 547.018 270.15 559.065 292.838 571.112C349.127 601.007 405.408 630.915 461.703 660.804C480.881 670.988 500.052 681.173 519.23 691.357C519.85 691.69 520.469 692.016 521.089 692.342C521.189 692.395 521.295 692.455 521.395 692.508C521.602 692.621 521.808 692.728 522.014 692.834C522.114 692.887 522.221 692.947 522.321 693C522.421 693.054 522.527 693.107 522.627 693.167C522.727 693.22 522.834 693.28 522.94 693.333C523.04 693.386 523.147 693.44 523.247 693.499C523.347 693.553 523.453 693.612 523.56 693.666C523.66 693.719 523.766 693.772 523.866 693.832C523.966 693.885 524.073 693.945 524.173 693.998C524.273 694.052 524.379 694.111 524.486 694.165C524.586 694.218 524.692 694.271 524.792 694.331C524.892 694.384 524.999 694.444 525.099 694.497C525.199 694.55 525.305 694.61 525.405 694.664C525.505 694.717 525.612 694.77 525.712 694.83C525.811 694.89 525.918 694.943 526.025 694.996C526.125 695.049 526.231 695.103 526.331 695.162C526.431 695.222 526.538 695.276 526.644 695.329C526.744 695.382 526.851 695.435 526.951 695.495C527.05 695.548 527.157 695.608 527.264 695.661C527.364 695.715 527.47 695.774 527.57 695.828C527.67 695.881 527.777 695.941 527.876 695.994C527.976 696.047 528.083 696.107 528.183 696.16C528.283 696.214 528.389 696.273 528.496 696.327C528.596 696.38 528.702 696.44 528.802 696.493C528.902 696.546 529.009 696.606 529.115 696.659C529.215 696.712 529.322 696.772 529.422 696.826C529.522 696.879 529.628 696.939 529.728 696.992C529.828 697.045 529.935 697.105 530.041 697.158C530.141 697.211 530.248 697.271 530.348 697.324C530.461 697.384 530.574 697.444 530.694 697.504C530.774 697.551 530.861 697.591 530.941 697.63C531.041 697.69 531.147 697.744 531.247 697.797C531.347 697.857 531.454 697.91 531.554 697.963C531.653 698.023 531.76 698.076 531.86 698.129C531.96 698.189 532.066 698.242 532.166 698.296C541.432 703.578 553.183 695.848 551.904 685.204L551.937 685.158Z" fill="#E1FF33"/>
</svg>
