<svg width="35" height="53" viewBox="0 0 35 53" fill="none" xmlns="http://www.w3.org/2000/svg">
<path d="M28.75 0.261719H6.25C4.75816 0.261719 3.32742 0.854351 2.27252 1.90924C1.21763 2.96414 0.625 4.39488 0.625 5.88672V47.1367C0.625 48.6286 1.21763 50.0593 2.27252 51.1142C3.32742 52.1691 4.75816 52.7617 6.25 52.7617H28.75C30.2418 52.7617 31.6726 52.1691 32.7275 51.1142C33.7824 50.0593 34.375 48.6286 34.375 47.1367V5.88672C34.375 4.39488 33.7824 2.96414 32.7275 1.90924C31.6726 0.854351 30.2418 0.261719 28.75 0.261719ZM4.375 11.5117H30.625V41.5117H4.375V11.5117ZM6.25 4.01172H28.75C29.2473 4.01172 29.7242 4.20926 30.0758 4.56089C30.4275 4.91252 30.625 5.38944 30.625 5.88672V7.76172H4.375V5.88672C4.375 5.38944 4.57254 4.91252 4.92418 4.56089C5.27581 4.20926 5.75272 4.01172 6.25 4.01172ZM28.75 49.0117H6.25C5.75272 49.0117 5.27581 48.8142 4.92418 48.4625C4.57254 48.1109 4.375 47.634 4.375 47.1367V45.2617H30.625V47.1367C30.625 47.634 30.4275 48.1109 30.0758 48.4625C29.7242 48.8142 29.2473 49.0117 28.75 49.0117Z" fill="black"/>
</svg>
