<svg width="35" height="36" viewBox="0 0 35 36" fill="none" xmlns="http://www.w3.org/2000/svg">
<path d="M31.1719 18C31.1719 18.4351 30.999 18.8524 30.6913 19.1601C30.3837 19.4678 29.9664 19.6406 29.5312 19.6406H5.46875C5.03363 19.6406 4.61633 19.4678 4.30865 19.1601C4.00098 18.8524 3.82812 18.4351 3.82812 18C3.82812 17.5649 4.00098 17.1476 4.30865 16.8399C4.61633 16.5322 5.03363 16.3594 5.46875 16.3594H29.5312C29.9664 16.3594 30.3837 16.5322 30.6913 16.8399C30.999 17.1476 31.1719 17.5649 31.1719 18ZM5.46875 10.8906H29.5312C29.9664 10.8906 30.3837 10.7178 30.6913 10.4101C30.999 10.1024 31.1719 9.68512 31.1719 9.25C31.1719 8.81488 30.999 8.39758 30.6913 8.0899C30.3837 7.78223 29.9664 7.60938 29.5312 7.60938H5.46875C5.03363 7.60938 4.61633 7.78223 4.30865 8.0899C4.00098 8.39758 3.82812 8.81488 3.82812 9.25C3.82812 9.68512 4.00098 10.1024 4.30865 10.4101C4.61633 10.7178 5.03363 10.8906 5.46875 10.8906ZM29.5312 25.1094H5.46875C5.03363 25.1094 4.61633 25.2822 4.30865 25.5899C4.00098 25.8976 3.82812 26.3149 3.82812 26.75C3.82812 27.1851 4.00098 27.6024 4.30865 27.9101C4.61633 28.2178 5.03363 28.3906 5.46875 28.3906H29.5312C29.9664 28.3906 30.3837 28.2178 30.6913 27.9101C30.999 27.6024 31.1719 27.1851 31.1719 26.75C31.1719 26.3149 30.999 25.8976 30.6913 25.5899C30.3837 25.2822 29.9664 25.1094 29.5312 25.1094Z" fill="black"/>
</svg>
